<svg xmlns="http://www.w3.org/2000/svg" viewBox="0 0 1160 1352" font-family="Segoe UI, Helvetica, Arial, sans-serif">
<defs>
<filter id="sh" x="-4%" y="-8%" width="108%" height="120%"><feDropShadow dx="0" dy="1.5" stdDeviation="2.5" flood-color="#1E2A38" flood-opacity="0.13"/></filter>
<marker id="ah" viewBox="0 0 10 10" refX="8.5" refY="5" markerWidth="7" markerHeight="7" orient="auto-start-reverse"><path d="M0,0 L10,5 L0,10 z" fill="#9AA7B6"/></marker>
<style>.mono{font-family:DejaVu Sans Mono,Consolas,monospace;}</style>
</defs>
<rect width="1160" height="1352" fill="#FBFCFD"/>
<text x="40" y="48" font-size="25" font-weight="700" fill="#1E2A38" letter-spacing="0.2">SEG Flexible Staff Scheduling: Workbook Architecture</text>
<text x="41" y="71" font-size="12.5" fill="#6B7A8F">How weekly bookings become a staffing and liability forecast</text>
<text x="1120" y="46" font-size="11" fill="#B5524A" text-anchor="end" font-weight="600">Rev. B · annotated with team feedback</text>
<line x1="40" y1="86" x2="1120" y2="86" stroke="#D9E0E8" stroke-width="1"/>
<text x="40" y="111" font-size="10" letter-spacing="1" font-weight="700" fill="#6B7A8F">NODE TYPES</text>
<rect x="150" y="99" width="12" height="12" rx="3" fill="#6B7A8F"/>
<text x="168" y="109" font-size="11" fill="#46535F">Reference</text>
<rect x="253.4" y="99" width="12" height="12" rx="3" fill="#157F7B"/>
<text x="271.4" y="109" font-size="11" fill="#46535F">Data store</text>
<rect x="363.4" y="99" width="12" height="12" rx="3" fill="#5A4FCF"/>
<text x="381.4" y="109" font-size="11" fill="#46535F">Process</text>
<rect x="453.59999999999997" y="99" width="12" height="12" rx="3" fill="#2F5D8A"/>
<text x="471.59999999999997" y="109" font-size="11" fill="#46535F">Presentation</text>
<rect x="576.8" y="99" width="12" height="12" rx="3" fill="#C0823A"/>
<text x="594.8" y="109" font-size="11" fill="#46535F">Insight</text>
<circle cx="671.0" cy="105" r="7.5" fill="#B5524A"/>
<text x="671.0" y="108" font-size="9.5" font-weight="700" fill="#fff" text-anchor="middle">n</text>
<text x="684.0" y="109" font-size="11" fill="#46535F">Pending change (see notes)</text>
<rect x="0" y="150" width="176" height="936" fill="#EEF1F5"/>
<line x1="176" y1="150" x2="176" y2="1086" stroke="#D9E0E8" stroke-width="1"/>
<circle cx="40" cy="245" r="15" fill="#33414F"/>
<text x="40" y="249" font-size="13" font-weight="700" fill="#ffffff" text-anchor="middle">1</text>
<text x="66" y="243" font-size="11" letter-spacing="1" font-weight="700" fill="#1E2A38">SOURCE</text>
<text x="66" y="258" font-size="10" fill="#6B7A8F">Editable tables</text>
<circle cx="40" cy="428" r="15" fill="#33414F"/>
<text x="40" y="432" font-size="13" font-weight="700" fill="#ffffff" text-anchor="middle">2</text>
<text x="66" y="426" font-size="11" letter-spacing="1" font-weight="700" fill="#1E2A38">COMPUTE</text>
<text x="66" y="441" font-size="10" fill="#6B7A8F">Proration engine</text>
<circle cx="40" cy="618" r="15" fill="#33414F"/>
<text x="40" y="622" font-size="13" font-weight="700" fill="#ffffff" text-anchor="middle">3</text>
<text x="66" y="616" font-size="11" letter-spacing="1" font-weight="700" fill="#1E2A38">AGGREGATE</text>
<text x="66" y="631" font-size="10" fill="#6B7A8F">Power Query ETL</text>
<circle cx="40" cy="843" r="15" fill="#33414F"/>
<text x="40" y="847" font-size="13" font-weight="700" fill="#ffffff" text-anchor="middle">4</text>
<text x="66" y="841" font-size="11" letter-spacing="1" font-weight="700" fill="#1E2A38">PRESENT</text>
<text x="66" y="856" font-size="10" fill="#6B7A8F">Pivot views</text>
<circle cx="40" cy="1029" r="15" fill="#33414F"/>
<text x="40" y="1033" font-size="13" font-weight="700" fill="#ffffff" text-anchor="middle">5</text>
<text x="66" y="1027" font-size="11" letter-spacing="1" font-weight="700" fill="#1E2A38">OUTPUT</text>
<text x="66" y="1042" font-size="10" fill="#6B7A8F">Gap analysis</text>
<rect x="190" y="170" width="440" height="150" rx="8" fill="#ffffff" stroke="#D7DEE7" stroke-width="1" filter="url(#sh)"/>
<path d="M 198,170 H 622 Q 630,170 630,178 V 173 H 190 V 178 Q 190,170 198,170 Z" fill="#157F7B"/>
<text x="204" y="190" font-size="9.5" letter-spacing="1.3" font-weight="700" fill="#157F7B">SOURCE DATA  ·  ×12 GROUPS</text>
<text x="204" y="209" font-size="13.5" font-weight="700" fill="#1E2A38">Group booking tables</text>
<text x="204" y="230" font-size="11.5" fill="#46535F">≈ 2,300 rows. One row = one person · one task · one charge code.</text>
<text x="204" y="246" font-size="11.5" fill="#46535F" class="mono">TDAA  TDAM  TDES  TDEV  PMO  VPE</text>
<text x="204" y="262" font-size="11.5" fill="#46535F" class="mono">SUB  SEG South  Dahlgren  Cluster  FTO  TD-Other</text>
<text x="204" y="278" font-size="11.5" fill="#46535F">Cols: Group · Employee · Program · Project · Task ·</text>
<text x="204" y="294" font-size="11.5" fill="#46535F">LCAT · Charge Code · Start · End · Unit · Committed</text>
<rect x="650" y="170" width="250" height="150" rx="8" fill="#ffffff" stroke="#D7DEE7" stroke-width="1" filter="url(#sh)"/>
<path d="M 658,170 H 892 Q 900,170 900,178 V 173 H 650 V 178 Q 650,170 658,170 Z" fill="#6B7A8F"/>
<text x="664" y="190" font-size="9.5" letter-spacing="1.3" font-weight="700" fill="#6B7A8F">REFERENCE</text>
<text x="664" y="209" font-size="13.5" font-weight="700" fill="#1E2A38">Validation + roster</text>
<text x="664" y="230" font-size="11.5" fill="#46535F">Programs + PMs  (≈90)</text>
<text x="664" y="247" font-size="11.5" fill="#46535F">Group lists + roster</text>
<text x="664" y="264" font-size="11.5" fill="#46535F">Committed scale (being revised)</text>
<text x="664" y="281" font-size="11.5" fill="#46535F">Weekly hours vary by person</text>
<text x="664" y="298" font-size="11.5" fill="#46535F">(no longer a flat 40)</text>
<rect x="920" y="170" width="216" height="150" rx="8" fill="#ffffff" stroke="#D7DEE7" stroke-width="1" filter="url(#sh)"/>
<path d="M 928,170 H 1128 Q 1136,170 1136,178 V 173 H 920 V 178 Q 920,170 928,170 Z" fill="#6B7A8F"/>
<text x="934" y="190" font-size="9.5" letter-spacing="1.3" font-weight="700" fill="#6B7A8F">REFERENCE</text>
<text x="934" y="209" font-size="13.5" font-weight="700" fill="#1E2A38">Holiday calendar</text>
<text x="934" y="230" font-size="11.5" fill="#46535F">FY2021 onward</text>
<text x="934" y="254" font-size="11.5" fill="#46535F">Feeds the engine’s</text>
<text x="934" y="270" font-size="11.5" fill="#46535F">working-day count</text>
<text x="934" y="286" font-size="11.5" fill="#46535F">(NETWORKDAYS)</text>
<rect x="190" y="372" width="946" height="112" rx="8" fill="#ffffff" stroke="#D7DEE7" stroke-width="1" filter="url(#sh)"/>
<path d="M 198,372 H 1128 Q 1136,372 1136,380 V 375 H 190 V 380 Q 190,372 198,372 Z" fill="#5A4FCF"/>
<text x="204" y="392" font-size="9.5" letter-spacing="1.3" font-weight="700" fill="#5A4FCF">PROCESS  ·  CUSTOM LAMBDA</text>
<text x="204" y="411" font-size="13.5" font-weight="700" fill="#1E2A38">Manpower / Clusterpower</text>
<rect x="204" y="396" width="690" height="26" rx="5" fill="#F1F3F7" stroke="#E3E7ED" stroke-width="1"/>
<text x="214" y="413" font-size="11.5" class="mono" fill="#2C3A47">weekly cell  =  Manpower( [Start], [End], [Unit],  thisMonday,  nextMonday )</text>
<text x="204" y="446" font-size="11.5" fill="#46535F">Each week  =  NETWORKDAYS(booking window, minus Holidays)  ÷ 5  ×  Unit.   All four week-overlap cases handled.</text>
<text x="204" y="466" font-size="11.5" fill="#46535F">Cluster tab uses Clusterpower (no holidays) for CPU / GPU capacity.   Fills ≈178 weekly columns:  8/4/2025 → 12/25/2028.</text>
<rect x="190" y="516" width="946" height="86" rx="8" fill="#ffffff" stroke="#D7DEE7" stroke-width="1" filter="url(#sh)"/>
<path d="M 198,516 H 1128 Q 1136,516 1136,524 V 519 H 190 V 524 Q 190,516 198,516 Z" fill="#5A4FCF"/>
<text x="204" y="538" font-size="9.5" letter-spacing="1.3" font-weight="700" fill="#5A4FCF">PROCESS  ·  ETL</text>
<text x="204" y="558" font-size="13.5" font-weight="700" fill="#1E2A38">Power Query append</text>
<rect x="204" y="570" width="918" height="26" rx="5" fill="#F1F3F7" stroke="#E3E7ED" stroke-width="1"/>
<text x="214" y="587" font-size="11.5" class="mono" fill="#2C3A47">SELECT * FROM [each of the 12 group tables]   →   union rows; add Source + UnitHours columns</text>
<rect x="190" y="624" width="223" height="96" rx="8" fill="#ffffff" stroke="#D7DEE7" stroke-width="1" filter="url(#sh)"/>
<path d="M 198,624 H 405 Q 413,624 413,632 V 627 H 190 V 632 Q 190,624 198,624 Z" fill="#157F7B"/>
<text x="204" y="644" font-size="9.5" letter-spacing="1.3" font-weight="700" fill="#157F7B">DATA STORE</text>
<text x="204" y="663" font-size="12.5" font-weight="700" fill="#1E2A38">Aggregate</text>
<text x="204" y="682" font-size="11.5" fill="#46535F">Plan in FTE / Unit</text>
<text x="204" y="697" font-size="11.5" fill="#46535F">terms</text>
<rect x="431" y="624" width="223" height="96" rx="8" fill="#ffffff" stroke="#D7DEE7" stroke-width="1" filter="url(#sh)"/>
<path d="M 439,624 H 646 Q 654,624 654,632 V 627 H 431 V 632 Q 431,624 439,624 Z" fill="#157F7B"/>
<text x="445" y="644" font-size="9.5" letter-spacing="1.3" font-weight="700" fill="#157F7B">DATA STORE</text>
<text x="445" y="663" font-size="12.5" font-weight="700" fill="#1E2A38">Aggregate-Hours</text>
<text x="445" y="682" font-size="11.5" fill="#46535F">Hours view: × each</text>
<text x="445" y="697" font-size="11.5" fill="#46535F">person’s weekly hours</text>
<rect x="672" y="624" width="223" height="96" rx="8" fill="#ffffff" stroke="#D7DEE7" stroke-width="1" filter="url(#sh)"/>
<path d="M 680,624 H 887 Q 895,624 895,632 V 627 H 672 V 632 Q 672,624 680,624 Z" fill="#157F7B"/>
<text x="686" y="644" font-size="9.5" letter-spacing="1.3" font-weight="700" fill="#157F7B">DATA STORE</text>
<text x="686" y="663" font-size="12.5" font-weight="700" fill="#1E2A38">AggregateMissingHours</text>
<text x="686" y="682" font-size="11.5" fill="#46535F">Booked vs capacity,</text>
<text x="686" y="697" font-size="11.5" fill="#46535F">per person · per week</text>
<rect x="913" y="624" width="223" height="96" rx="8" fill="#ffffff" stroke="#D7DEE7" stroke-width="1" filter="url(#sh)"/>
<path d="M 921,624 H 1128 Q 1136,624 1136,632 V 627 H 913 V 632 Q 913,624 921,624 Z" fill="#157F7B"/>
<text x="927" y="644" font-size="9.5" letter-spacing="1.3" font-weight="700" fill="#157F7B">DATA STORE</text>
<text x="927" y="663" font-size="12.5" font-weight="700" fill="#1E2A38">AH_Removed</text>
<text x="927" y="682" font-size="11.5" fill="#46535F">Excludes Unavailable</text>
<text x="927" y="697" font-size="11.5" fill="#46535F">+ Cluster (CPU/GPU)</text>
<rect x="190" y="748" width="946" height="190" rx="8" fill="#ffffff" stroke="#D7DEE7" stroke-width="1" filter="url(#sh)"/>
<path d="M 198,748 H 1128 Q 1136,748 1136,756 V 751 H 190 V 756 Q 190,748 198,748 Z" fill="#2F5D8A"/>
<text x="204" y="768" font-size="9.5" letter-spacing="1.3" font-weight="700" fill="#2F5D8A">PRESENTATION</text>
<text x="204" y="784" font-size="13.5" font-weight="700" fill="#1E2A38">Pivot layer  ·  4 caches  ·  9 views</text>
<rect x="206" y="806" width="91" height="26" rx="13" fill="#ffffff" stroke="#CBD5E1" stroke-width="1"/>
<text x="252" y="823" font-size="11" fill="#2F5D8A" text-anchor="middle" font-weight="600">Staff Load</text>
<rect x="309.0" y="806" width="138" height="26" rx="13" fill="#ffffff" stroke="#CBD5E1" stroke-width="1"/>
<text x="378" y="823" font-size="11" fill="#2F5D8A" text-anchor="middle" font-weight="600">Staff Per Project</text>
<rect x="458.9" y="806" width="71" height="26" rx="13" fill="#ffffff" stroke="#CBD5E1" stroke-width="1"/>
<text x="494" y="823" font-size="11" fill="#2F5D8A" text-anchor="middle" font-weight="600">+ Hours</text>
<rect x="541.8" y="806" width="91" height="26" rx="13" fill="#ffffff" stroke="#CBD5E1" stroke-width="1"/>
<text x="587" y="823" font-size="11" fill="#2F5D8A" text-anchor="middle" font-weight="600">+ As-Hours</text>
<rect x="644.8" y="806" width="151" height="26" rx="13" fill="#ffffff" stroke="#CBD5E1" stroke-width="1"/>
<text x="720" y="823" font-size="11" fill="#2F5D8A" text-anchor="middle" font-weight="600">Projects &amp; Programs</text>
<rect x="206" y="840" width="104" height="26" rx="13" fill="#ffffff" stroke="#CBD5E1" stroke-width="1"/>
<text x="258" y="857" font-size="11" fill="#2F5D8A" text-anchor="middle" font-weight="600">Charge Codes</text>
<rect x="322.4" y="840" width="138" height="26" rx="13" fill="#ffffff" stroke="#CBD5E1" stroke-width="1"/>
<text x="391" y="857" font-size="11" fill="#2F5D8A" text-anchor="middle" font-weight="600">Hours per Project</text>
<rect x="472.29999999999995" y="840" width="171" height="26" rx="13" fill="#ffffff" stroke="#CBD5E1" stroke-width="1"/>
<text x="558" y="857" font-size="11" fill="#2F5D8A" text-anchor="middle" font-weight="600">Hours per Program-Year</text>
<rect x="655.6999999999999" y="840" width="118" height="26" rx="13" fill="#ffffff" stroke="#CBD5E1" stroke-width="1"/>
<text x="715" y="857" font-size="11" fill="#2F5D8A" text-anchor="middle" font-weight="600">LiabilityHours</text>
<rect x="206" y="880" width="914" height="32" rx="7" fill="#ECF1F8" stroke="#C7D6E8" stroke-width="1"/>
<text x="663" y="901" font-size="11.5" fill="#2F5D8A" text-anchor="middle" font-weight="600">Slicers ( Committed · Group · Program · Project · Employee ) filter all views together</text>
<rect x="190" y="978" width="946" height="92" rx="8" fill="#ffffff" stroke="#D7DEE7" stroke-width="1" filter="url(#sh)"/>
<path d="M 198,978 H 1128 Q 1136,978 1136,986 V 981 H 190 V 986 Q 190,978 198,978 Z" fill="#C0823A"/>
<text x="204" y="998" font-size="9.5" letter-spacing="1.3" font-weight="700" fill="#C0823A">OUTPUT  ·  INSIGHT</text>
<text x="204" y="1017" font-size="13.5" font-weight="700" fill="#1E2A38">Liability / gap analysis</text>
<text x="204" y="1036" font-size="11.5" fill="#46535F">Each person’s planned weekly hours − booked hours, computed week by week (AggregateMissingHours).</text>
<text x="204" y="1056" font-size="11.5" fill="#46535F">LiabilityHours rolls up by group and person, excluding Unavailable and Cluster: who is unbooked, and when.</text>
<path d="M 410,320 L 410,344" fill="none" stroke="#9AA7B6" stroke-width="1.6"/>
<path d="M 775,320 L 775,344" fill="none" stroke="#9AA7B6" stroke-width="1.6"/>
<path d="M 1028,320 L 1028,344" fill="none" stroke="#9AA7B6" stroke-width="1.6"/>
<path d="M 410,344 L 1028,344" fill="none" stroke="#9AA7B6" stroke-width="1.6"/>
<path d="M 663,344 L 663,372" fill="none" stroke="#9AA7B6" stroke-width="1.6" marker-end="url(#ah)"/>
<path d="M 663,484 L 663,516" fill="none" stroke="#9AA7B6" stroke-width="1.6" marker-end="url(#ah)"/>
<path d="M 663,602 L 663,614" fill="none" stroke="#9AA7B6" stroke-width="1.6"/>
<path d="M 301.5,614 L 1024.5,614" fill="none" stroke="#9AA7B6" stroke-width="1.6"/>
<path d="M 301.5,614 L 301.5,624" fill="none" stroke="#9AA7B6" stroke-width="1.6" marker-end="url(#ah)"/>
<path d="M 542.5,614 L 542.5,624" fill="none" stroke="#9AA7B6" stroke-width="1.6" marker-end="url(#ah)"/>
<path d="M 783.5,614 L 783.5,624" fill="none" stroke="#9AA7B6" stroke-width="1.6" marker-end="url(#ah)"/>
<path d="M 1024.5,614 L 1024.5,624" fill="none" stroke="#9AA7B6" stroke-width="1.6" marker-end="url(#ah)"/>
<path d="M 301.5,720 L 301.5,736" fill="none" stroke="#9AA7B6" stroke-width="1.6"/>
<path d="M 542.5,720 L 542.5,736" fill="none" stroke="#9AA7B6" stroke-width="1.6"/>
<path d="M 783.5,720 L 783.5,736" fill="none" stroke="#9AA7B6" stroke-width="1.6"/>
<path d="M 1024.5,720 L 1024.5,736" fill="none" stroke="#9AA7B6" stroke-width="1.6"/>
<path d="M 301.5,736 L 1024.5,736" fill="none" stroke="#9AA7B6" stroke-width="1.6"/>
<path d="M 663,736 L 663,748" fill="none" stroke="#9AA7B6" stroke-width="1.6" marker-end="url(#ah)"/>
<path d="M 663,938 L 663,978" fill="none" stroke="#9AA7B6" stroke-width="1.6" marker-end="url(#ah)"/>
<circle cx="612" cy="188" r="8.5" fill="#B5524A" stroke="#ffffff" stroke-width="1.4"/>
<text x="612" y="191" font-size="10" font-weight="700" fill="#ffffff" text-anchor="middle">1</text>
<circle cx="882" cy="188" r="8.5" fill="#B5524A" stroke="#ffffff" stroke-width="1.4"/>
<text x="882" y="191" font-size="10" font-weight="700" fill="#ffffff" text-anchor="middle">2</text>
<circle cx="860" cy="188" r="8.5" fill="#B5524A" stroke="#ffffff" stroke-width="1.4"/>
<text x="860" y="191" font-size="10" font-weight="700" fill="#ffffff" text-anchor="middle">3</text>
<circle cx="636" cy="642" r="8.5" fill="#B5524A" stroke="#ffffff" stroke-width="1.4"/>
<text x="636" y="645" font-size="10" font-weight="700" fill="#ffffff" text-anchor="middle">2</text>
<circle cx="1118" cy="642" r="8.5" fill="#B5524A" stroke="#ffffff" stroke-width="1.4"/>
<text x="1118" y="645" font-size="10" font-weight="700" fill="#ffffff" text-anchor="middle">4</text>
<circle cx="1118" cy="996" r="8.5" fill="#B5524A" stroke="#ffffff" stroke-width="1.4"/>
<text x="1118" y="999" font-size="10" font-weight="700" fill="#ffffff" text-anchor="middle">4</text>
<rect x="40" y="1098" width="1080" height="206" rx="8" fill="#FFFBF7" stroke="#E7D8CC" stroke-width="1"/>
<path d="M 48,1098 H 1112 Q 1120,1098 1120,1106 V 1101 H 40 V 1106 Q 40,1098 48,1098 Z" fill="#B5524A"/>
<text x="60" y="1122" font-size="10.5" letter-spacing="1.2" font-weight="700" fill="#B5524A">TEAM FEEDBACK  ·  PENDING CHANGES &amp; CORRECTIONS</text>
<text x="1100" y="1122" font-size="10" fill="#6B7A8F" text-anchor="end">numbers map to flags on the diagram</text>
<circle cx="62" cy="1150" r="8.5" fill="#B5524A" stroke="#ffffff" stroke-width="1.4"/>
<text x="62" y="1153" font-size="10" font-weight="700" fill="#ffffff" text-anchor="middle">1</text>
<text x="82" y="1154" font-size="12" font-weight="700" fill="#1E2A38">Group booking tables</text>
<text x="82" y="1172" font-size="11.5" fill="#46535F">Today: one row = one person · one task · one charge code. Wanted: list all charge codes with their % split in a single cell, so one row = one person · one task.</text>
<circle cx="62" cy="1190" r="8.5" fill="#B5524A" stroke="#ffffff" stroke-width="1.4"/>
<text x="62" y="1193" font-size="10" font-weight="700" fill="#ffffff" text-anchor="middle">2</text>
<text x="82" y="1194" font-size="12" font-weight="700" fill="#1E2A38">Validation + roster  →  Aggregate-Hours</text>
<text x="82" y="1212" font-size="11.5" fill="#46535F">Weekly hours vary by person. The hours view must scale by each person’s planned hours/week, not a flat 40 (a pain point in the original coding).</text>
<circle cx="62" cy="1230" r="8.5" fill="#B5524A" stroke="#ffffff" stroke-width="1.4"/>
<text x="62" y="1233" font-size="10" font-weight="700" fill="#ffffff" text-anchor="middle">3</text>
<text x="82" y="1234" font-size="12" font-weight="700" fill="#1E2A38">Validation + roster · Committed scale</text>
<text x="82" y="1252" font-size="11.5" fill="#46535F">The committed scale is being revised; the new values are still TBD (Melanie Lee).</text>
<circle cx="62" cy="1270" r="8.5" fill="#B5524A" stroke="#ffffff" stroke-width="1.4"/>
<text x="62" y="1273" font-size="10" font-weight="700" fill="#ffffff" text-anchor="middle">4</text>
<text x="82" y="1274" font-size="12" font-weight="700" fill="#1E2A38">AH_Removed  →  gap / liability</text>
<text x="82" y="1292" font-size="11.5" fill="#46535F">Exclude Unavailable placeholders and Cluster (CPU/GPU) from missing-hours and liability.</text>
<text x="40" y="1330" font-size="10.5" fill="#6B7A8F">Source: SEG-Schedule.xlsx  ·  28 sheets, 22 tables, 9 pivots, 7 slicers, Power Query  ·  created by M. Lee, last edited by I. Livingston</text>
</svg>